<svg xmlns="http://www.w3.org/2000/svg" xmlns:xlink="http://www.w3.org/1999/xlink" width="1024" zoomAndPan="magnify" viewBox="0 0 768 767.999994" height="1024" preserveAspectRatio="xMidYMid meet" version="1.0"><defs><g/><clipPath id="a4064699a6"><rect x="0" width="556" y="0" height="221"/></clipPath></defs><g transform="matrix(1, 0, 0, 1, 102, 260)"><g clip-path="url(#a4064699a6)"><g fill="#eeede9" fill-opacity="1"><g transform="translate(1.318542, 174.548132)"><g><path d="M 28.5 -124.71875 L 92.109375 -124.71875 C 94.128906 -124.71875 95.71875 -125.03125 96.875 -125.65625 C 98.039062 -126.28125 99.082031 -126.890625 100 -127.484375 C 100.914062 -128.078125 101.96875 -128.375 103.15625 -128.375 C 104.707031 -128.375 105.910156 -127.988281 106.765625 -127.21875 C 107.628906 -126.445312 108.300781 -125.171875 108.78125 -123.390625 L 114.828125 -95.328125 C 115.367188 -92.359375 114.445312 -90.632812 112.0625 -90.15625 C 109.75 -89.675781 108.03125 -90.65625 106.90625 -93.09375 C 104.769531 -98.195312 102.882812 -102.320312 101.25 -105.46875 C 99.613281 -108.625 98.007812 -111.046875 96.4375 -112.734375 C 94.863281 -114.429688 93.15625 -115.585938 91.3125 -116.203125 C 89.46875 -116.828125 87.300781 -117.140625 84.8125 -117.140625 L 70.734375 -117.140625 L 70.734375 -12.828125 C 70.734375 -10.335938 72.21875 -8.734375 75.1875 -8.015625 L 80.984375 -6.953125 C 82.222656 -6.597656 83.09375 -6.117188 83.59375 -5.515625 C 84.101562 -4.921875 84.359375 -4.179688 84.359375 -3.296875 C 84.359375 -1.097656 82.90625 0 80 0 L 40.625 0 C 37.71875 0 36.265625 -1.097656 36.265625 -3.296875 C 36.265625 -4.179688 36.515625 -4.921875 37.015625 -5.515625 C 37.515625 -6.117188 38.390625 -6.597656 39.640625 -6.953125 L 45.4375 -8.015625 C 48.40625 -8.734375 49.890625 -10.335938 49.890625 -12.828125 L 49.890625 -117.140625 L 35.8125 -117.140625 C 33.320312 -117.140625 31.15625 -116.828125 29.3125 -116.203125 C 27.46875 -115.585938 25.757812 -114.429688 24.1875 -112.734375 C 22.613281 -111.046875 21.007812 -108.625 19.375 -105.46875 C 17.738281 -102.320312 15.851562 -98.195312 13.71875 -93.09375 C 12.59375 -90.65625 10.867188 -89.675781 8.546875 -90.15625 C 6.171875 -90.632812 5.253906 -92.359375 5.796875 -95.328125 L 11.84375 -123.390625 C 12.320312 -125.171875 12.988281 -126.445312 13.84375 -127.21875 C 14.707031 -127.988281 15.910156 -128.375 17.453125 -128.375 C 18.703125 -128.375 19.769531 -128.078125 20.65625 -127.484375 C 21.550781 -126.890625 22.59375 -126.28125 23.78125 -125.65625 C 24.96875 -125.03125 26.539062 -124.71875 28.5 -124.71875 Z M 28.5 -124.71875 "/></g></g></g><g fill="#eeede9" fill-opacity="1"><g transform="translate(103.235475, 174.548132)"><g><path d="M 36.796875 -80.265625 L 37.5 -65.484375 C 39.757812 -72.066406 43.023438 -77.082031 47.296875 -80.53125 C 51.578125 -83.976562 56.125 -85.703125 60.9375 -85.703125 C 66.34375 -85.703125 70.546875 -84.21875 73.546875 -81.25 C 76.546875 -78.28125 78.046875 -74.148438 78.046875 -68.859375 C 78.046875 -64.765625 77.164062 -61.660156 75.40625 -59.546875 C 73.65625 -57.441406 71.382812 -56.390625 68.59375 -56.390625 C 65.800781 -56.390625 63.632812 -57.175781 62.09375 -58.75 C 60.550781 -60.320312 59.78125 -62.503906 59.78125 -65.296875 L 59.78125 -68.328125 C 59.71875 -70.347656 59.210938 -71.847656 58.265625 -72.828125 C 57.316406 -73.804688 55.769531 -74.296875 53.625 -74.296875 C 51.070312 -74.296875 48.578125 -73.285156 46.140625 -71.265625 C 43.710938 -69.242188 41.722656 -66.1875 40.171875 -62.09375 C 38.628906 -58 37.859375 -52.832031 37.859375 -46.59375 L 37.859375 -12.46875 C 37.859375 -10.925781 38.195312 -9.769531 38.875 -9 C 39.5625 -8.226562 40.738281 -7.722656 42.40625 -7.484375 L 50.421875 -6.328125 C 52.921875 -5.972656 54.171875 -4.875 54.171875 -3.03125 C 54.171875 -1.007812 52.773438 0 49.984375 0 L 12.109375 0 C 9.441406 0 8.109375 -1.007812 8.109375 -3.03125 C 8.109375 -4.507812 9.144531 -5.546875 11.21875 -6.140625 L 15.40625 -7.125 C 16.59375 -7.425781 17.484375 -7.976562 18.078125 -8.78125 C 18.671875 -9.582031 18.96875 -10.785156 18.96875 -12.390625 L 18.96875 -67.34375 C 18.96875 -68.707031 18.742188 -69.703125 18.296875 -70.328125 C 17.859375 -70.953125 17.101562 -71.328125 16.03125 -71.453125 L 10.0625 -71.71875 C 8.101562 -71.957031 7.125 -72.816406 7.125 -74.296875 C 7.125 -75.066406 7.390625 -75.703125 7.921875 -76.203125 C 8.460938 -76.710938 9.382812 -77.207031 10.6875 -77.6875 L 25.125 -82.84375 C 27.5 -83.675781 29.265625 -84.238281 30.421875 -84.53125 C 31.578125 -84.832031 32.484375 -84.984375 33.140625 -84.984375 C 34.265625 -84.984375 35.125 -84.625 35.71875 -83.90625 C 36.3125 -83.195312 36.671875 -81.984375 36.796875 -80.265625 Z M 36.796875 -80.265625 "/></g></g></g><g fill="#eeede9" fill-opacity="1"><g transform="translate(169.873466, 174.548132)"><g><path d="M 16.390625 -24.328125 L 16.390625 -67.4375 C 16.390625 -68.800781 16.164062 -69.796875 15.71875 -70.421875 C 15.28125 -71.046875 14.523438 -71.414062 13.453125 -71.53125 L 7.484375 -71.796875 C 5.523438 -72.035156 4.546875 -72.898438 4.546875 -74.390625 C 4.546875 -75.160156 4.8125 -75.796875 5.34375 -76.296875 C 5.875 -76.804688 6.796875 -77.296875 8.109375 -77.765625 L 22.8125 -82.9375 C 24.707031 -83.65625 26.25 -84.160156 27.4375 -84.453125 C 28.625 -84.753906 29.632812 -84.90625 30.46875 -84.90625 C 32.070312 -84.90625 33.273438 -84.488281 34.078125 -83.65625 C 34.878906 -82.820312 35.28125 -81.660156 35.28125 -80.171875 L 35.28125 -27.171875 C 35.28125 -21.234375 36.71875 -16.789062 39.59375 -13.84375 C 42.476562 -10.90625 46.328125 -9.4375 51.140625 -9.4375 C 54.109375 -9.4375 57.296875 -10.207031 60.703125 -11.75 C 64.117188 -13.300781 67.757812 -15.707031 71.625 -18.96875 L 72.15625 -19.421875 L 72.15625 -67.4375 C 72.15625 -68.800781 71.914062 -69.796875 71.4375 -70.421875 C 70.96875 -71.046875 70.226562 -71.414062 69.21875 -71.53125 L 63.15625 -71.796875 C 61.257812 -72.035156 60.3125 -72.898438 60.3125 -74.390625 C 60.3125 -75.160156 60.5625 -75.796875 61.0625 -76.296875 C 61.570312 -76.804688 62.507812 -77.296875 63.875 -77.765625 L 78.484375 -82.9375 C 80.378906 -83.65625 81.921875 -84.160156 83.109375 -84.453125 C 84.304688 -84.753906 85.378906 -84.90625 86.328125 -84.90625 C 87.867188 -84.90625 89.023438 -84.488281 89.796875 -83.65625 C 90.566406 -82.820312 90.953125 -81.660156 90.953125 -80.171875 L 90.953125 -12.46875 C 90.953125 -10.8125 91.265625 -9.582031 91.890625 -8.78125 C 92.515625 -7.976562 93.390625 -7.425781 94.515625 -7.125 L 98.53125 -6.234375 C 100.664062 -5.523438 101.734375 -4.457031 101.734375 -3.03125 C 101.734375 -1.007812 100.335938 0 97.546875 0 L 82.046875 0 C 79.191406 0 76.914062 -0.929688 75.21875 -2.796875 C 73.53125 -4.671875 72.6875 -7.242188 72.6875 -10.515625 L 72.6875 -13.1875 C 66.21875 -7.601562 60.503906 -3.664062 55.546875 -1.375 C 50.585938 0.90625 45.820312 2.046875 41.25 2.046875 C 36.320312 2.046875 31.984375 0.976562 28.234375 -1.15625 C 24.492188 -3.289062 21.582031 -6.332031 19.5 -10.28125 C 17.425781 -14.238281 16.390625 -18.921875 16.390625 -24.328125 Z M 16.390625 -24.328125 "/></g></g></g><g fill="#eeede9" fill-opacity="1"><g transform="translate(264.217862, 174.548132)"><g><path d="M 52.203125 1.0625 L 45.875 1.0625 C 42.726562 1.0625 40.5625 -0.535156 39.375 -3.734375 L 12.46875 -70.734375 C 11.519531 -73.171875 10.703125 -74.757812 10.015625 -75.5 C 9.335938 -76.238281 8.492188 -76.726562 7.484375 -76.96875 L 4.1875 -77.59375 C 3.0625 -77.894531 2.257812 -78.3125 1.78125 -78.84375 C 1.300781 -79.375 1.0625 -80.023438 1.0625 -80.796875 C 1.0625 -82.816406 2.398438 -83.828125 5.078125 -83.828125 L 40.984375 -83.828125 C 42.222656 -83.828125 43.195312 -83.554688 43.90625 -83.015625 C 44.625 -82.484375 44.984375 -81.773438 44.984375 -80.890625 C 44.984375 -80.054688 44.726562 -79.382812 44.21875 -78.875 C 43.71875 -78.375 42.847656 -77.976562 41.609375 -77.6875 L 37.859375 -77.0625 C 34.953125 -76.582031 33.242188 -75.675781 32.734375 -74.34375 C 32.234375 -73.007812 32.632812 -70.585938 33.9375 -67.078125 L 54.875 -13.28125 L 75.71875 -67.078125 C 77.082031 -70.585938 77.5 -73.007812 76.96875 -74.34375 C 76.4375 -75.675781 74.6875 -76.582031 71.71875 -77.0625 L 68.0625 -77.6875 C 66.8125 -77.976562 65.929688 -78.375 65.421875 -78.875 C 64.921875 -79.382812 64.671875 -80.054688 64.671875 -80.890625 C 64.671875 -81.773438 65.023438 -82.484375 65.734375 -83.015625 C 66.453125 -83.554688 67.4375 -83.828125 68.6875 -83.828125 L 93.546875 -83.828125 C 94.734375 -83.828125 95.679688 -83.554688 96.390625 -83.015625 C 97.097656 -82.484375 97.453125 -81.742188 97.453125 -80.796875 C 97.453125 -80.023438 97.226562 -79.382812 96.78125 -78.875 C 96.34375 -78.375 95.5 -77.976562 94.25 -77.6875 L 90.953125 -77.15625 C 89.828125 -76.914062 88.832031 -76.171875 87.96875 -74.921875 C 87.113281 -73.671875 86.0625 -71.472656 84.8125 -68.328125 L 58.625 -3.296875 C 57.90625 -1.628906 57.007812 -0.488281 55.9375 0.125 C 54.875 0.75 53.628906 1.0625 52.203125 1.0625 Z M 52.203125 1.0625 "/></g></g></g><g fill="#eeede9" fill-opacity="1"><g transform="translate(348.49531, 174.548132)"><g><path d="M 37.859375 -126.6875 L 37.859375 -12.46875 C 37.859375 -10.8125 38.15625 -9.582031 38.75 -8.78125 C 39.34375 -7.976562 40.234375 -7.425781 41.421875 -7.125 L 45.4375 -6.234375 C 47.507812 -5.523438 48.546875 -4.457031 48.546875 -3.03125 C 48.546875 -1.007812 47.179688 0 44.453125 0 L 12.109375 0 C 9.441406 0 8.109375 -1.007812 8.109375 -3.03125 C 8.109375 -4.507812 9.144531 -5.546875 11.21875 -6.140625 L 15.40625 -7.125 C 16.59375 -7.425781 17.484375 -7.976562 18.078125 -8.78125 C 18.671875 -9.582031 18.96875 -10.785156 18.96875 -12.390625 L 18.96875 -113.9375 C 18.96875 -115.300781 18.742188 -116.296875 18.296875 -116.921875 C 17.859375 -117.546875 17.101562 -117.914062 16.03125 -118.03125 L 10.0625 -118.3125 C 8.101562 -118.539062 7.125 -119.398438 7.125 -120.890625 C 7.125 -121.660156 7.390625 -122.296875 7.921875 -122.796875 C 8.460938 -123.304688 9.382812 -123.800781 10.6875 -124.28125 L 25.390625 -129.4375 C 27.285156 -130.15625 28.828125 -130.660156 30.015625 -130.953125 C 31.203125 -131.253906 32.210938 -131.40625 33.046875 -131.40625 C 34.648438 -131.40625 35.851562 -130.988281 36.65625 -130.15625 C 37.457031 -129.320312 37.859375 -128.164062 37.859375 -126.6875 Z M 37.859375 -126.6875 "/></g></g></g><g fill="#eeede9" fill-opacity="1"><g transform="translate(388.763207, 174.548132)"><g><path d="M 37.859375 -126.6875 L 37.859375 -12.46875 C 37.859375 -10.8125 38.15625 -9.582031 38.75 -8.78125 C 39.34375 -7.976562 40.234375 -7.425781 41.421875 -7.125 L 45.4375 -6.234375 C 47.507812 -5.523438 48.546875 -4.457031 48.546875 -3.03125 C 48.546875 -1.007812 47.179688 0 44.453125 0 L 12.109375 0 C 9.441406 0 8.109375 -1.007812 8.109375 -3.03125 C 8.109375 -4.507812 9.144531 -5.546875 11.21875 -6.140625 L 15.40625 -7.125 C 16.59375 -7.425781 17.484375 -7.976562 18.078125 -8.78125 C 18.671875 -9.582031 18.96875 -10.785156 18.96875 -12.390625 L 18.96875 -113.9375 C 18.96875 -115.300781 18.742188 -116.296875 18.296875 -116.921875 C 17.859375 -117.546875 17.101562 -117.914062 16.03125 -118.03125 L 10.0625 -118.3125 C 8.101562 -118.539062 7.125 -119.398438 7.125 -120.890625 C 7.125 -121.660156 7.390625 -122.296875 7.921875 -122.796875 C 8.460938 -123.304688 9.382812 -123.800781 10.6875 -124.28125 L 25.390625 -129.4375 C 27.285156 -130.15625 28.828125 -130.660156 30.015625 -130.953125 C 31.203125 -131.253906 32.210938 -131.40625 33.046875 -131.40625 C 34.648438 -131.40625 35.851562 -130.988281 36.65625 -130.15625 C 37.457031 -129.320312 37.859375 -128.164062 37.859375 -126.6875 Z M 37.859375 -126.6875 "/></g></g></g><g fill="#eeede9" fill-opacity="1"><g transform="translate(429.031104, 174.548132)"><g><path d="M 52.46875 -85.609375 C 59 -85.609375 64.984375 -84.539062 70.421875 -82.40625 C 75.859375 -80.269531 80.550781 -77.238281 84.5 -73.3125 C 88.445312 -69.394531 91.503906 -64.765625 93.671875 -59.421875 C 95.835938 -54.078125 96.921875 -48.164062 96.921875 -41.6875 C 96.921875 -35.394531 95.835938 -29.585938 93.671875 -24.265625 C 91.503906 -18.953125 88.414062 -14.320312 84.40625 -10.375 C 80.394531 -6.425781 75.628906 -3.367188 70.109375 -1.203125 C 64.585938 0.960938 58.5 2.046875 51.84375 2.046875 C 45.3125 2.046875 39.328125 0.976562 33.890625 -1.15625 C 28.460938 -3.289062 23.769531 -6.316406 19.8125 -10.234375 C 15.863281 -14.160156 12.804688 -18.8125 10.640625 -24.1875 C 8.472656 -29.5625 7.390625 -35.457031 7.390625 -41.875 C 7.390625 -48.226562 8.472656 -54.0625 10.640625 -59.375 C 12.804688 -64.6875 15.894531 -69.300781 19.90625 -73.21875 C 23.914062 -77.144531 28.679688 -80.191406 34.203125 -82.359375 C 39.734375 -84.523438 45.820312 -85.609375 52.46875 -85.609375 Z M 58.796875 -5.703125 C 63.722656 -6.410156 67.742188 -8.441406 70.859375 -11.796875 C 73.984375 -15.160156 76.0625 -19.675781 77.09375 -25.34375 C 78.132812 -31.019531 78.003906 -37.6875 76.703125 -45.34375 C 75.398438 -53.0625 73.257812 -59.457031 70.28125 -64.53125 C 67.3125 -69.613281 63.71875 -73.296875 59.5 -75.578125 C 55.289062 -77.867188 50.628906 -78.628906 45.515625 -77.859375 C 40.585938 -77.148438 36.566406 -75.113281 33.453125 -71.75 C 30.335938 -68.394531 28.257812 -63.894531 27.21875 -58.25 C 26.175781 -52.613281 26.304688 -45.9375 27.609375 -38.21875 C 28.921875 -30.5 31.0625 -24.097656 34.03125 -19.015625 C 37 -13.941406 40.601562 -10.273438 44.84375 -8.015625 C 49.09375 -5.753906 53.742188 -4.984375 58.796875 -5.703125 Z M 58.796875 -5.703125 "/></g></g></g><g fill="#d4a017" fill-opacity="1"><g transform="translate(519.100525, 174.548132)"><g><path d="M 21.734375 1.609375 C 19.296875 1.609375 17.082031 0.984375 15.09375 -0.265625 C 13.101562 -1.515625 11.515625 -3.160156 10.328125 -5.203125 C 9.140625 -7.253906 8.546875 -9.46875 8.546875 -11.84375 C 8.546875 -14.34375 9.140625 -16.613281 10.328125 -18.65625 C 11.515625 -20.707031 13.101562 -22.328125 15.09375 -23.515625 C 17.082031 -24.703125 19.296875 -25.296875 21.734375 -25.296875 C 24.234375 -25.296875 26.476562 -24.703125 28.46875 -23.515625 C 30.457031 -22.328125 32.046875 -20.707031 33.234375 -18.65625 C 34.421875 -16.613281 35.015625 -14.34375 35.015625 -11.84375 C 35.015625 -9.46875 34.421875 -7.253906 33.234375 -5.203125 C 32.046875 -3.160156 30.457031 -1.515625 28.46875 -0.265625 C 26.476562 0.984375 24.234375 1.609375 21.734375 1.609375 Z M 21.734375 1.609375 "/></g></g></g></g></g></svg>